<svg xmlns="http://www.w3.org/2000/svg" xmlns:xlink="http://www.w3.org/1999/xlink" x="0px" y="0px" width="60px" height="60px" viewBox="0 0 60 60" enable-background="new 0 0 60 60" xml:space="preserve"><g id="icon-linkedin"><path d="M17.514,14.141c2.207,0,3.996,1.792,3.996,3.996c0,2.204-1.789,3.997-3.996,3.997c-2.215,0-4.001-1.792-4.001-3.997 C13.513,15.932,15.299,14.141,17.514,14.141z M14.061,25.165h6.901V47.34h-6.901V25.165z"/><path d="M25.291,25.165H31.9v3.031h0.095c0.92-1.745,3.171-3.582,6.524-3.582c6.979,0,8.271,4.59,8.271,10.562V47.34h-6.892V36.561 c0-2.574-0.051-5.882-3.584-5.882c-3.59,0-4.137,2.8-4.137,5.692v10.97H25.29L25.291,25.165L25.291,25.165z"/></g></svg>